<svg width="168" height="26" viewBox="0 0 168 26" fill="none" xmlns="http://www.w3.org/2000/svg">
<path d="M151.444 4H167.556C167.806 4 168 3.82716 168 3.60494V0.395062C168 0.17284 167.806 0 167.556 0H151.444C151.194 0 151 0.17284 151 0.395062V3.60494C151.028 3.82716 151.222 4 151.444 4Z" fill="white"/>
<path d="M167.556 22H151.444C151.194 22 151 22.1728 151 22.3951V25.6049C151 25.8272 151.194 26 151.444 26H167.556C167.806 26 168 25.8272 168 25.6049V22.3951C168 22.1728 167.806 22 167.556 22Z" fill="white"/>
<path d="M151.454 15H164.546C164.801 15 165 14.825 165 14.6V11.4C165 11.175 164.801 11 164.546 11H151.454C151.199 11 151 11.175 151 11.4V14.6C151.028 14.825 151.227 15 151.454 15Z" fill="white"/>
<path d="M18.5803 0H14.327C14.1031 0 13.9072 0.195699 13.9072 0.419355V10.7075H5.09278V0.419355C5.09278 0.195699 4.89691 0 4.67305 0H0.419735C0.195876 0 0 0.195699 0 0.419355V25.5806C0 25.8043 0.195876 26 0.419735 26H4.67305C4.89691 26 5.09278 25.8043 5.09278 25.5806V15.1806H13.9072V25.5806C13.9072 25.8043 14.1031 26 14.327 26H18.5803C18.8041 26 19 25.8043 19 25.5806V0.419355C19 0.195699 18.8041 0 18.5803 0Z" fill="white"/>
<path d="M139.58 21C132.219 21 126.093 21 126.093 21V0.419355C126.093 0.195699 125.897 0 125.673 0H121.42C121.196 0 121 0.195699 121 0.419355V25.5806C121 25.8043 121.196 26 121.42 26C127.473 26 133.527 26 139.58 26C139.804 26 140 25.8043 140 25.5806V21.4194C140 21.1957 139.804 21 139.58 21Z" fill="white"/>
<path d="M97 0H91.4197C91.1959 0 91 0.195699 91 0.419355V25.5806C91 25.8043 91.1959 26 91.4197 26H97C105 26 110 21 110 13C110 5 105 0 97 0Z" fill="white"/>
<path d="M50.5455 0H45.8312C45.6555 0 45.4798 0.112311 45.4212 0.2527L40.5605 10.473L35.6119 0.224622C35.5534 0.0842333 35.407 0 35.2313 0H30.3998C30.107 0 29.9021 0.308855 30.0485 0.561555L37.8959 15.3305V25.5788C37.8959 25.8035 38.1009 26 38.3351 26H42.698C42.9323 26 43.1373 25.8035 43.1373 25.5788V15.3305L50.9554 0.617711C51.1018 0.336933 50.8676 0 50.5455 0Z" fill="white"/>
<path d="M74.2602 14.7454C74.9214 14.522 75.5252 14.2148 76.1289 13.8238C76.704 13.4329 77.2502 12.9302 77.6815 12.3716C78.1415 11.8131 78.4865 11.1429 78.7452 10.4168C79.004 9.69066 79.1477 8.85285 79.1477 7.93126C79.1477 6.84211 78.9465 5.80881 78.5727 4.85929C78.1702 3.90977 77.624 3.07197 76.8765 2.34586C76.1289 1.61976 75.2089 1.06122 74.1452 0.64232C73.0814 0.223416 71.8451 0 70.4939 0H60.46C60.2013 0 60 0.195489 60 0.446831V25.5811C60 25.8045 60.2013 26 60.4313 26H64.8013C65.0313 26 65.2326 25.8045 65.2326 25.5811V15.6391H68.9989L74.1164 25.7766C74.1739 25.9162 74.3464 26 74.4902 26H79.579C79.8952 26 80.0965 25.6649 79.9527 25.3856L74.2602 14.7454ZM72.9089 10.4168C72.2189 11.0591 71.2989 11.3663 70.1489 11.3663H65.2326V4.49624H70.1489C71.2989 4.49624 72.2189 4.80344 72.9089 5.44576C73.5989 6.08808 73.9439 6.89796 73.9439 7.93126C73.9152 8.93663 73.5702 9.77444 72.9089 10.4168Z" fill="white"/>
</svg>
