<?xml version="1.0" standalone="no"?>
<!DOCTYPE svg PUBLIC "-//W3C//DTD SVG 20010904//EN"
 "http://www.w3.org/TR/2001/REC-SVG-20010904/DTD/svg10.dtd">
<svg version="1.0" xmlns="http://www.w3.org/2000/svg"
 width="5376.000000pt" height="5376.000000pt" viewBox="0 0 5376.000000 5376.000000"
 preserveAspectRatio="xMidYMid meet">
<metadata>
Created by potrace 1.14, written by Peter Selinger 2001-2017
</metadata>
<g transform="translate(0.000000,5376.000000) scale(0.100000,-0.100000)"
fill="#000000" stroke="none">
<path d="M84 31030 c-11 -4 -34 -24 -52 -44 l-32 -37 3 -4074 2 -4075 38 -37
37 -38 735 0 735 0 37 38 38 37 5 1692 5 1691 1390 -1 c765 0 1398 -1 1408 -1
16 -1 17 -88 17 -1679 0 -923 3 -1682 8 -1686 4 -4 7 -11 7 -14 0 -16 33 -50
62 -66 29 -14 102 -16 738 -16 636 0 709 2 738 16 55 29 91 103 76 157 -4 15
-5 27 -1 27 4 0 7 16 7 35 0 19 -2 35 -5 35 -3 0 -5 20 -5 45 0 25 2 45 5 45
3 0 5 38 5 85 0 47 -3 85 -7 85 -4 0 -3 11 2 25 6 15 6 26 0 30 -6 4 -7 13 -1
23 11 21 11 33 0 53 -4 9 -5 19 -2 23 9 8 10 66 1 66 -4 0 -5 7 -2 15 9 22 10
235 2 235 -4 0 -3 11 2 25 6 15 6 27 0 30 -6 3 -6 15 0 30 6 15 6 27 0 30 -7
4 -6 13 0 25 6 12 7 21 0 25 -5 3 -6 15 0 29 4 12 5 28 0 35 -4 7 -4 28 0 47
4 19 4 34 -1 34 -5 0 -4 11 1 25 6 15 6 26 0 30 -7 4 -6 13 0 25 6 12 7 21 0
25 -5 3 -6 15 -1 28 5 13 5 30 0 39 -6 10 -6 19 0 23 7 4 7 15 1 30 -5 14 -6
25 -2 25 4 0 7 16 7 35 0 19 -3 35 -7 35 -4 0 -3 11 2 25 6 15 6 26 0 30 -7 4
-6 13 0 25 6 12 7 21 0 25 -5 3 -6 15 -1 28 5 13 5 30 0 39 -6 10 -6 19 0 23
7 4 7 15 1 30 -5 14 -6 25 -2 25 8 0 6 85 -3 100 -3 5 -2 10 4 10 6 0 6 11 1
30 -5 17 -6 30 -2 30 4 0 7 52 7 115 0 63 -3 115 -7 115 -4 0 -3 11 2 25 6 15
6 27 0 30 -6 3 -6 15 0 30 6 15 6 27 0 30 -7 4 -6 13 0 25 6 12 7 21 0 25 -5
3 -6 15 0 29 4 12 5 28 0 35 -4 7 -4 28 0 47 4 19 4 34 -1 34 -5 0 -4 11 1 25
6 15 6 26 0 30 -7 4 -6 13 0 25 6 12 7 21 0 25 -5 3 -6 15 -1 28 5 13 5 30 0
39 -6 10 -6 19 0 23 7 4 7 15 1 30 -5 14 -6 25 -1 25 5 0 5 18 1 40 -4 22 -5
40 -1 40 3 0 6 38 6 85 0 47 -3 85 -7 85 -4 0 -3 11 2 25 6 15 6 26 0 30 -6 4
-7 13 -1 23 5 9 10 19 12 22 1 3 -3 15 -9 26 -6 12 -8 24 -5 28 9 8 10 66 1
66 -4 0 -5 7 -2 15 9 22 10 235 2 235 -4 0 -3 11 2 25 6 15 6 27 0 30 -6 3 -6
15 0 30 6 15 6 27 0 30 -7 4 -6 13 0 25 6 12 7 21 0 25 -5 3 -6 15 0 29 4 12
5 28 0 35 -4 7 -4 28 0 47 4 19 4 34 -1 34 -5 0 -4 11 1 25 6 15 6 26 0 30 -7
4 -6 13 0 25 6 12 7 21 0 25 -5 3 -6 15 -1 28 5 13 5 30 0 39 -6 10 -6 19 0
23 7 4 7 15 1 30 -5 14 -6 25 -2 25 4 0 7 16 7 35 0 19 -3 35 -7 35 -4 0 -3
11 2 25 6 15 6 26 0 30 -7 4 -6 13 0 25 6 12 7 21 0 25 -5 3 -6 15 -1 28 5 13
5 30 0 39 -6 10 -6 19 0 23 7 4 7 15 1 30 -5 14 -6 25 -2 25 8 0 6 85 -3 100
-3 5 -2 10 4 10 6 0 6 11 1 30 -5 17 -6 30 -2 30 4 0 7 52 7 115 0 63 -3 115
-7 115 -4 0 -3 11 2 25 6 15 6 27 0 30 -6 3 -6 15 0 30 6 15 6 27 0 30 -7 4
-6 13 0 25 6 12 7 21 0 25 -5 3 -6 15 0 29 4 12 5 28 0 35 -4 7 -4 28 0 47 4
19 4 34 -1 34 -5 0 -4 11 1 25 6 15 6 26 0 30 -7 4 -6 13 0 25 6 12 7 21 0 25
-5 3 -6 15 -1 28 5 13 5 30 0 39 -6 10 -6 19 0 23 7 4 7 15 1 30 -5 14 -6 25
-2 25 9 0 7 53 -2 69 -4 5 -2 12 4 16 7 4 7 12 0 25 -6 12 -7 21 0 25 6 3 6
15 0 30 -6 15 -6 27 0 30 6 3 6 15 0 30 -6 15 -6 27 0 30 6 3 6 15 0 30 -6 15
-6 25 0 25 5 0 5 12 0 28 -4 16 -4 36 1 45 6 10 5 18 -1 22 -6 4 -7 13 -1 24
6 10 6 23 1 31 -5 8 -6 18 -3 23 8 13 9 77 1 77 -3 0 -3 14 2 30 5 17 5 30 1
30 -4 0 -5 20 -1 45 4 25 3 45 -1 45 -5 0 -4 11 1 25 6 15 6 26 0 30 -7 4 -6
13 0 25 6 12 7 21 0 25 -5 3 -6 15 -1 28 5 13 5 30 0 39 -6 10 -6 19 0 23 7 4
7 15 1 30 -5 14 -6 25 -2 25 8 0 6 85 -3 100 -3 5 -2 10 4 10 6 0 6 11 1 30
-5 17 -6 30 -2 30 4 0 7 52 7 115 0 63 -3 115 -7 115 -4 0 -3 11 2 25 6 15 6
27 0 30 -6 3 -6 15 0 30 6 15 6 27 0 30 -7 4 -6 13 0 25 6 12 7 21 0 25 -5 3
-6 15 0 29 4 12 5 28 0 35 -4 7 -4 28 0 47 4 19 4 34 -1 34 -5 0 -4 11 1 25 6
15 6 26 0 30 -7 4 -6 13 0 25 6 12 7 21 0 25 -5 3 -6 15 -1 28 5 13 5 30 0 39
-6 10 -6 19 0 23 7 4 7 15 1 30 -5 14 -6 25 -2 25 8 0 6 85 -3 100 -3 5 -2 10
4 10 7 0 7 8 1 25 -5 13 -6 26 -2 29 8 5 8 64 -1 72 -3 3 -2 17 3 30 6 14 6
26 0 29 -6 4 -7 13 -1 24 6 10 6 23 1 31 -5 8 -5 21 1 31 6 11 5 20 -1 24 -6
4 -7 13 -1 24 6 10 6 23 1 31 -5 8 -6 18 -3 23 8 13 9 77 1 77 -3 0 -3 14 2
30 5 17 5 30 1 30 -4 0 -4 25 -1 56 3 30 3 57 -2 60 -4 3 -4 13 1 23 6 10 6
23 1 31 -5 8 -5 21 0 31 5 9 7 19 4 22 -4 3 -7 22 -9 42 -1 27 -12 46 -39 73
l-36 37 -722 3 c-551 2 -727 0 -749 -10 -15 -7 -39 -30 -53 -52 l-26 -40 0
-1661 0 -1661 -1410 0 -1410 0 -2 1670 c-3 1653 -3 1671 -23 1698 -45 60 -19
58 -793 57 -389 0 -716 -4 -728 -9z"/>
<path d="M9665 31021 c-75 -45 -79 -106 -15 -226 23 -44 59 -111 80 -150 114
-214 145 -273 158 -300 9 -16 24 -42 34 -57 11 -16 16 -28 12 -28 -3 0 -2 -6
4 -12 10 -14 83 -147 115 -213 11 -22 28 -52 39 -67 11 -16 16 -28 12 -28 -3
0 -1 -6 5 -14 6 -7 39 -67 73 -132 33 -66 65 -120 70 -122 4 -2 8 -11 8 -21 0
-9 4 -21 9 -26 8 -9 70 -124 139 -258 16 -31 34 -63 40 -70 5 -6 13 -23 17
-37 4 -14 11 -27 14 -30 4 -3 24 -39 46 -80 51 -100 75 -142 87 -157 6 -7 7
-13 3 -13 -4 0 -3 -6 3 -12 9 -12 32 -55 132 -243 23 -44 60 -113 82 -154 64
-119 144 -270 185 -351 21 -41 41 -77 44 -80 3 -3 18 -30 33 -60 15 -30 44
-86 64 -125 21 -38 66 -124 101 -190 35 -66 71 -133 81 -150 10 -16 46 -84 80
-150 35 -66 85 -160 112 -210 27 -49 54 -102 59 -117 6 -16 15 -28 20 -28 5 0
9 -8 9 -18 0 -10 4 -22 9 -27 8 -9 83 -148 143 -265 13 -25 26 -47 31 -48 4
-2 5 -8 1 -13 -3 -5 0 -9 5 -9 6 0 11 -9 11 -19 0 -11 4 -21 9 -23 5 -1 20
-25 33 -53 35 -72 179 -342 232 -435 l31 -55 1 -1662 0 -1661 24 -34 c48 -71
0 -67 811 -68 658 0 733 1 762 16 35 18 69 55 75 82 2 9 5 760 6 1667 2 908 7
1660 11 1673 4 12 12 22 18 22 6 0 7 3 4 7 -4 3 -3 11 2 17 4 6 33 58 64 116
31 58 74 139 96 180 22 41 55 104 73 140 18 36 35 67 38 70 3 3 25 46 50 95
25 50 47 92 50 95 3 3 19 32 35 65 17 33 32 62 35 65 3 3 20 34 38 70 19 36
55 106 82 155 26 50 65 124 86 165 21 41 41 77 44 80 3 3 22 39 43 80 76 149
112 215 122 222 6 4 7 8 3 8 -4 0 6 23 22 50 17 28 30 55 30 60 0 6 4 10 10
10 5 0 9 3 8 8 -2 4 41 88 94 187 53 99 114 214 135 255 47 88 121 228 171
320 19 36 57 108 84 160 28 52 67 127 88 165 20 39 61 115 90 170 29 55 65
123 80 150 30 56 88 165 175 330 32 61 70 133 85 160 28 51 68 126 160 300 29
55 65 123 80 150 30 54 98 184 193 365 33 63 66 122 73 130 7 8 13 18 14 22 7
34 14 48 20 48 5 0 7 23 6 51 -4 60 -28 97 -80 122 -34 16 -88 17 -829 15
l-792 -3 -32 -23 c-24 -17 -51 -61 -104 -169 -39 -80 -72 -151 -73 -158 -1 -7
-7 -19 -14 -27 -6 -8 -10 -17 -7 -20 3 -3 -1 -11 -10 -18 -8 -7 -15 -16 -15
-20 0 -4 -25 -61 -56 -126 -31 -66 -78 -166 -106 -224 -27 -58 -58 -122 -69
-142 -11 -21 -17 -38 -12 -38 4 0 1 -5 -7 -10 -8 -5 -15 -13 -16 -17 -1 -13
-18 -51 -87 -193 -35 -74 -80 -169 -100 -210 -34 -74 -74 -157 -197 -415 -34
-71 -82 -173 -107 -225 -25 -52 -67 -140 -93 -195 -26 -55 -66 -138 -88 -185
-22 -47 -61 -130 -88 -185 -26 -55 -47 -103 -46 -107 1 -5 -3 -8 -9 -8 -5 0
-7 -4 -4 -10 3 -5 1 -10 -4 -10 -6 0 -10 -3 -9 -7 1 -5 -18 -48 -42 -98 -24
-49 -43 -93 -42 -97 1 -3 -5 -12 -13 -18 -8 -7 -15 -18 -15 -24 0 -6 -22 -56
-49 -111 -76 -157 -95 -199 -93 -207 1 -5 -3 -8 -8 -8 -6 0 -10 -7 -10 -15 0
-27 -17 -16 -35 23 -30 62 -148 309 -218 452 -36 74 -102 212 -147 305 -45 94
-103 213 -128 265 -26 52 -47 98 -47 102 0 4 -6 13 -12 20 -7 6 -13 16 -13 20
0 5 -35 82 -79 171 -76 157 -143 295 -289 597 -38 80 -93 195 -122 255 -125
261 -234 487 -280 578 -27 53 -46 97 -42 97 4 0 2 4 -3 8 -6 4 -32 54 -60 112
-113 241 -138 284 -175 302 -32 17 -94 18 -840 18 -766 0 -806 -1 -835 -19z"/>
<path d="M19281 31023 c-44 -23 -69 -58 -77 -108 -3 -22 -8 -43 -10 -47 -2 -4
0 -9 5 -13 6 -3 7 -15 1 -29 -4 -12 -4 -29 0 -36 5 -8 6 -18 3 -23 -8 -12 -7
-106 0 -114 4 -3 2 -13 -3 -22 -5 -10 -5 -23 0 -31 5 -8 5 -21 0 -30 -5 -9 -5
-22 0 -30 5 -8 5 -21 0 -30 -5 -9 -5 -22 0 -30 5 -8 5 -21 0 -30 -5 -9 -5 -22
0 -30 5 -8 5 -21 0 -30 -5 -9 -5 -22 0 -30 5 -8 5 -21 0 -30 -5 -9 -5 -22 0
-30 5 -8 5 -21 0 -30 -5 -9 -5 -22 0 -30 5 -8 5 -21 0 -30 -5 -9 -5 -22 0 -30
5 -8 5 -21 0 -30 -5 -9 -5 -22 0 -30 5 -8 5 -21 0 -30 -5 -9 -5 -22 0 -30 5
-8 5 -21 0 -30 -5 -9 -5 -22 0 -30 5 -8 5 -21 0 -30 -5 -9 -5 -22 0 -30 5 -8
5 -21 0 -30 -5 -9 -5 -22 0 -30 5 -8 5 -21 0 -30 -5 -9 -5 -22 0 -30 5 -8 5
-21 0 -30 -5 -9 -5 -22 0 -30 5 -8 5 -21 0 -30 -5 -9 -5 -22 0 -30 5 -8 5 -21
0 -30 -5 -9 -5 -22 0 -30 4 -7 4 -24 0 -36 -6 -14 -5 -26 0 -29 6 -3 6 -15 0
-30 -5 -14 -5 -27 0 -30 5 -3 5 -18 0 -35 -5 -17 -5 -30 0 -30 5 0 5 -13 0
-30 -5 -17 -5 -30 0 -30 5 0 5 -13 0 -30 -5 -17 -5 -30 0 -30 5 0 5 -13 0 -30
-5 -17 -5 -30 0 -30 5 0 5 -13 0 -30 -5 -17 -5 -30 0 -30 5 0 5 -13 0 -30 -5
-17 -5 -30 0 -30 5 0 5 -13 0 -30 -5 -17 -5 -30 0 -30 5 0 5 -13 0 -30 -5 -17
-5 -30 0 -30 5 0 5 -13 0 -30 -5 -17 -5 -30 0 -30 5 0 5 -13 0 -30 -5 -17 -5
-30 0 -30 5 0 5 -13 0 -30 -5 -17 -5 -30 0 -30 5 0 5 -13 0 -30 -5 -17 -5 -30
0 -30 5 0 5 -13 0 -30 -5 -17 -5 -30 0 -30 5 0 5 -13 0 -30 -5 -17 -5 -30 0
-30 5 0 5 -13 0 -30 -5 -17 -5 -30 0 -30 5 0 5 -13 0 -30 -5 -19 -5 -30 1 -30
6 0 7 -5 4 -11 -4 -6 -7 -43 -7 -84 0 -41 3 -78 7 -84 3 -6 2 -11 -4 -11 -6 0
-6 -11 -1 -30 5 -17 5 -32 0 -35 -5 -3 -5 -16 0 -30 6 -15 6 -27 -1 -30 -5 -4
-7 -11 -3 -16 5 -9 8 -83 4 -101 -4 -21 -2 -139 3 -144 3 -3 2 -16 -3 -28 -4
-12 -4 -29 0 -37 5 -8 5 -21 1 -28 -5 -7 -5 -28 -1 -47 4 -19 5 -34 1 -34 -3
0 -6 -16 -6 -35 0 -19 3 -35 6 -35 4 0 3 -16 -1 -35 -4 -19 -4 -37 1 -40 4 -3
4 -16 0 -28 -5 -13 -5 -30 -1 -38 5 -8 5 -21 1 -28 -5 -7 -5 -28 -1 -47 4 -18
5 -35 2 -38 -7 -8 -6 -135 1 -142 3 -3 2 -16 -3 -28 -4 -12 -4 -29 0 -37 5 -8
5 -21 1 -28 -5 -7 -5 -28 -1 -47 4 -19 5 -34 1 -34 -3 0 -6 -16 -6 -35 0 -19
3 -35 6 -35 4 0 3 -16 -1 -35 -4 -19 -4 -37 1 -40 4 -3 4 -16 -1 -29 -4 -12
-4 -29 0 -36 5 -8 6 -19 3 -24 -8 -13 -7 -102 2 -116 3 -5 2 -10 -4 -10 -6 0
-6 -11 -1 -30 5 -17 5 -30 0 -30 -5 0 -5 -13 0 -30 5 -17 5 -30 0 -30 -5 0 -5
-13 0 -30 5 -17 5 -30 0 -30 -5 0 -5 -13 0 -30 5 -17 5 -30 0 -30 -5 0 -5 -13
0 -30 5 -17 5 -30 0 -30 -5 0 -5 -13 0 -30 5 -17 5 -30 0 -30 -5 0 -5 -13 0
-30 5 -17 5 -30 0 -30 -5 0 -5 -13 0 -30 5 -17 5 -30 0 -30 -5 0 -5 -13 0 -30
5 -17 5 -30 0 -30 -5 0 -5 -13 0 -30 5 -17 5 -30 0 -30 -5 0 -5 -13 0 -30 5
-17 5 -30 0 -30 -5 0 -5 -13 0 -30 5 -17 5 -30 0 -30 -5 0 -5 -13 0 -30 5 -17
5 -30 0 -30 -5 0 -5 -13 0 -30 5 -17 5 -30 0 -30 -5 0 -5 -13 0 -30 5 -17 5
-30 0 -30 -5 0 -5 -13 0 -30 5 -17 5 -30 0 -30 -5 0 -5 -13 0 -30 5 -17 5 -30
0 -30 -5 0 -5 -13 0 -30 5 -17 5 -30 0 -30 -5 0 -5 -13 0 -30 5 -17 5 -30 0
-30 -5 0 -5 -13 0 -30 5 -17 5 -30 0 -30 -5 0 -5 -13 0 -30 5 -17 5 -30 0 -30
-5 0 -5 -13 0 -30 5 -17 5 -30 0 -30 -5 0 -5 -13 0 -30 5 -17 5 -30 0 -30 -5
0 -5 -13 0 -30 5 -17 5 -30 0 -30 -5 0 -5 -13 0 -30 5 -17 5 -30 0 -30 -5 0
-5 -13 0 -30 5 -17 5 -30 0 -30 -5 0 -5 -13 0 -30 5 -17 5 -30 0 -30 -5 0 -5
-13 0 -30 5 -17 5 -30 0 -30 -5 0 -5 -13 0 -30 5 -17 5 -30 0 -30 -5 0 -5 -13
0 -30 5 -17 5 -30 0 -30 -5 0 -5 -13 0 -30 5 -17 5 -30 0 -30 -5 0 -5 -13 0
-30 5 -17 5 -30 0 -30 -5 0 -5 -13 0 -30 5 -17 5 -30 0 -30 -5 0 -5 -13 0 -30
5 -17 5 -30 0 -30 -5 0 -5 -13 0 -30 5 -17 5 -30 0 -30 -5 0 -5 -13 0 -30 5
-17 5 -30 0 -30 -5 0 -5 -13 0 -30 5 -17 5 -30 0 -30 -5 0 -5 -13 0 -30 5 -17
5 -30 0 -30 -5 0 -5 -13 0 -30 5 -17 5 -30 0 -30 -5 0 -5 -13 0 -30 5 -19 5
-30 -1 -30 -6 0 -7 -4 -4 -10 5 -9 9 -94 5 -112 -4 -21 -2 -139 3 -144 3 -3 2
-16 -3 -28 -4 -12 -4 -29 0 -37 5 -8 5 -21 1 -28 -5 -7 -5 -28 -1 -47 4 -19 5
-34 1 -34 -3 0 -6 -16 -6 -35 0 -19 3 -35 6 -35 4 0 3 -16 -1 -35 -4 -19 -4
-37 1 -40 4 -3 4 -16 0 -28 -5 -13 -5 -30 -1 -38 5 -8 5 -21 1 -28 -5 -7 -5
-28 -1 -47 4 -18 5 -35 2 -38 -7 -8 -6 -135 1 -142 3 -3 2 -16 -3 -28 -4 -12
-4 -29 0 -37 5 -8 5 -21 1 -28 -5 -7 -5 -28 -1 -47 4 -19 5 -34 1 -34 -3 0 -6
-16 -6 -35 0 -19 3 -35 6 -35 4 0 3 -16 -1 -35 -4 -19 -4 -37 1 -40 4 -3 4
-16 -1 -29 -4 -12 -4 -29 0 -36 5 -8 6 -18 3 -24 -9 -13 -9 -57 -1 -88 3 -15
3 -30 -2 -33 -5 -3 -5 -19 0 -35 5 -19 5 -30 -1 -30 -6 0 -8 -4 -5 -9 3 -5 8
-28 10 -51 3 -33 13 -51 40 -79 l36 -36 743 -3 c710 -2 744 -1 777 16 19 11
44 34 55 53 19 32 19 62 20 1638 l0 1606 598 0 c329 0 602 -2 606 -5 12 -9 71
-130 63 -130 -4 0 -2 -4 4 -8 6 -4 37 -61 70 -127 32 -66 63 -123 67 -126 5
-3 8 -9 8 -13 -1 -3 16 -41 38 -84 125 -249 578 -1146 593 -1174 65 -125 219
-439 218 -444 -1 -4 3 -10 8 -13 13 -8 123 -231 114 -231 -4 0 -2 -4 4 -8 6
-4 59 -101 117 -217 378 -752 347 -696 393 -717 40 -17 85 -18 886 -18 l844 0
32 23 c41 28 65 78 59 123 -4 29 -61 158 -77 174 -3 3 -23 39 -44 80 -57 110
-97 183 -109 198 -5 6 -6 12 -1 12 5 0 4 4 -2 8 -5 4 -18 23 -28 42 -9 19 -34
67 -55 105 -20 39 -59 111 -85 160 -27 50 -52 95 -57 101 -5 6 -7 13 -4 16 3
3 -1 11 -10 18 -8 7 -15 16 -15 20 0 4 -19 43 -43 86 -44 80 -144 266 -181
339 -12 22 -23 42 -26 45 -3 3 -19 32 -36 65 -75 148 -110 211 -119 217 -5 4
-7 8 -3 8 4 0 -5 21 -20 48 -16 26 -57 103 -93 172 -35 69 -67 127 -70 130 -3
3 -17 28 -31 55 -14 28 -39 75 -55 105 -17 30 -56 105 -88 165 -32 61 -63 113
-69 117 -6 4 -8 8 -4 8 4 0 -5 24 -22 53 -38 68 -123 227 -224 418 -27 51 -61
115 -77 143 -16 28 -46 85 -66 126 -21 41 -40 77 -43 80 -10 11 -70 129 -70
139 0 6 6 11 13 11 6 0 39 12 72 26 33 14 65 26 70 27 18 4 232 107 250 120 5
4 42 26 80 49 39 23 73 45 76 50 3 6 8 8 10 7 4 -3 60 31 69 42 3 3 29 22 59
42 29 21 49 37 45 37 -5 0 8 12 29 27 20 14 37 30 37 35 0 4 4 8 10 8 20 0
197 189 290 310 14 17 31 38 38 45 6 8 12 18 12 23 0 5 7 15 16 23 8 7 24 29
35 48 11 20 33 59 48 86 79 138 188 396 207 490 1 6 12 46 24 90 11 44 23 94
25 110 3 17 6 41 9 55 5 31 14 96 22 175 9 90 11 405 2 405 -4 0 -3 11 2 24 5
13 6 26 3 29 -3 3 -6 31 -8 61 -2 31 -6 64 -9 73 -3 10 -8 42 -11 72 -4 30 -9
63 -11 75 -3 12 -7 32 -10 46 -16 79 -19 94 -34 150 -41 157 -100 312 -174
460 -63 125 -76 148 -98 174 -10 11 -18 24 -18 29 0 9 -131 198 -155 223 -5 6
-35 40 -65 75 -61 70 -155 165 -216 219 -67 58 -202 160 -212 160 -6 0 -12 4
-14 9 -9 23 -371 225 -383 213 -3 -3 -5 0 -5 6 0 7 -7 12 -15 12 -8 0 -23 4
-33 10 -34 19 -117 53 -129 53 -7 0 -13 3 -13 7 0 4 -6 7 -12 8 -7 0 -57 16
-110 35 -54 19 -98 33 -98 30 0 -3 -7 0 -15 7 -8 7 -15 10 -15 7 0 -3 -15 -1
-32 4 -18 6 -44 12 -58 15 -14 3 -34 8 -45 11 -11 4 -27 8 -35 9 -8 2 -31 6
-50 10 -19 4 -42 8 -50 9 -8 1 -35 5 -60 10 -25 4 -58 9 -75 11 -16 1 -30 3
-30 4 0 2 -37 7 -123 17 -31 3 -851 8 -1822 10 -1673 3 -1767 2 -1799 -14z
m1672 -1426 c6 5 219 8 242 3 6 -1 15 -2 20 0 27 5 165 1 174 -4 6 -4 11 -4
11 1 0 4 54 8 120 8 66 0 120 -3 120 -7 0 -4 6 -5 14 -2 23 9 306 10 306 1 0
-5 5 -5 10 -2 10 6 221 10 245 5 6 -1 12 -2 15 -1 12 5 270 5 270 1 0 -3 26
-5 58 -6 118 -1 236 -21 357 -59 44 -14 84 -25 89 -25 5 1 12 -2 15 -7 3 -4
29 -19 56 -31 113 -53 250 -160 346 -268 38 -44 103 -142 133 -201 27 -54 74
-189 81 -233 2 -14 6 -36 9 -50 16 -84 22 -237 11 -320 -16 -126 -42 -240 -72
-310 -3 -8 -7 -18 -7 -22 -1 -3 -4 -10 -8 -14 -5 -4 -8 -16 -8 -26 0 -10 -4
-18 -9 -18 -5 0 -14 -14 -20 -31 -33 -95 -200 -287 -316 -365 -94 -62 -237
-131 -310 -149 -5 -1 -17 -5 -25 -8 -19 -7 -143 -32 -220 -44 -19 -3 -429 -6
-910 -7 l-876 -3 0 1096 c0 1096 0 1096 21 1102 11 3 27 2 36 -2 9 -5 19 -6
22 -2z"/>
<path d="M29172 31005 c-37 -33 -73 -115 -52 -115 5 0 5 -13 0 -30 -5 -17 -5
-32 0 -35 5 -3 6 -15 0 -29 -4 -12 -4 -29 0 -36 5 -8 5 -21 1 -29 -5 -8 -5
-27 -1 -43 5 -15 5 -28 0 -28 -5 0 -5 -13 0 -30 5 -17 5 -30 0 -30 -5 0 -5
-13 0 -30 5 -17 5 -30 0 -30 -5 0 -5 -13 0 -30 5 -19 5 -30 -1 -30 -6 0 -7 -4
-4 -10 8 -13 11 -108 3 -115 -3 -4 -2 -20 2 -36 5 -16 6 -29 2 -29 -8 0 -7
-68 1 -76 3 -3 2 -16 -3 -28 -4 -13 -4 -29 0 -36 5 -8 6 -18 3 -23 -7 -12 -8
-106 0 -113 3 -3 1 -19 -3 -35 -5 -18 -5 -29 1 -29 6 0 7 -5 3 -11 -3 -6 -6
-71 -6 -144 0 -73 3 -138 6 -144 4 -6 3 -11 -3 -11 -6 0 -6 -11 -1 -30 5 -17
5 -32 0 -35 -5 -3 -5 -16 0 -30 6 -15 6 -27 0 -30 -5 -3 -6 -16 -1 -28 4 -12
5 -33 1 -47 -4 -14 -3 -37 1 -52 4 -16 5 -28 1 -28 -4 0 -7 -29 -7 -65 0 -36
3 -65 7 -65 4 0 3 -13 -2 -30 -5 -17 -5 -30 0 -30 5 0 5 -13 0 -30 -5 -17 -5
-30 0 -30 5 0 5 -13 0 -29 -4 -15 -4 -34 0 -42 5 -7 5 -20 0 -29 -5 -9 -5 -22
0 -30 5 -8 5 -21 0 -30 -5 -9 -5 -22 0 -30 5 -8 5 -21 0 -30 -5 -9 -5 -22 -1
-29 5 -7 5 -29 1 -49 -3 -21 -3 -49 1 -65 4 -15 4 -27 1 -27 -4 0 -7 -29 -7
-65 0 -36 3 -65 7 -65 4 0 3 -13 -2 -30 -5 -17 -5 -30 0 -30 5 0 5 -13 0 -30
-5 -17 -5 -30 0 -30 5 0 5 -13 0 -29 -4 -15 -4 -34 0 -42 5 -7 5 -20 0 -29 -5
-9 -5 -22 0 -30 5 -8 5 -21 0 -30 -5 -9 -5 -22 0 -30 5 -8 5 -21 0 -31 -5 -9
-7 -19 -4 -22 8 -8 9 -106 1 -113 -3 -3 -1 -19 3 -35 5 -16 6 -29 2 -29 -8 0
-7 -68 1 -76 3 -3 2 -16 -3 -28 -4 -13 -4 -29 0 -36 5 -8 6 -19 3 -24 -8 -13
-7 -102 2 -116 3 -5 2 -10 -4 -10 -6 0 -6 -11 -1 -30 5 -17 5 -30 0 -30 -5 0
-5 -13 0 -30 5 -17 5 -30 0 -30 -5 0 -5 -13 0 -30 5 -17 5 -32 0 -35 -5 -3 -5
-16 0 -30 6 -15 6 -25 0 -25 -5 0 -5 -12 0 -30 5 -17 5 -30 0 -30 -5 0 -5 -13
0 -30 5 -17 5 -30 0 -30 -5 0 -5 -13 0 -30 5 -17 5 -30 0 -30 -5 0 -5 -13 0
-30 5 -19 5 -30 -1 -30 -6 0 -7 -4 -4 -10 8 -13 11 -108 3 -115 -3 -4 -2 -20
2 -36 5 -16 6 -29 2 -29 -8 0 -7 -68 1 -76 3 -3 2 -16 -3 -28 -4 -12 -4 -29 0
-37 5 -8 5 -21 1 -28 -5 -7 -5 -28 -1 -47 4 -19 4 -36 0 -39 -5 -3 -5 -19 0
-35 5 -17 6 -30 2 -30 -8 0 -7 -68 1 -76 3 -3 2 -16 -3 -28 -4 -13 -4 -29 0
-36 5 -8 6 -19 3 -24 -8 -13 -7 -102 2 -116 3 -5 2 -10 -4 -10 -6 0 -6 -11 -1
-30 5 -17 5 -30 0 -30 -5 0 -5 -13 0 -30 5 -17 5 -30 0 -30 -5 0 -5 -13 0 -30
5 -17 5 -32 0 -35 -5 -3 -5 -16 0 -30 6 -15 6 -25 0 -25 -5 0 -5 -12 0 -30 5
-17 5 -30 0 -30 -5 0 -5 -13 0 -30 5 -17 5 -30 0 -30 -5 0 -5 -13 0 -30 5 -17
5 -30 0 -30 -5 0 -5 -13 0 -30 5 -19 5 -30 -1 -30 -6 0 -7 -4 -4 -10 8 -13 11
-108 3 -115 -3 -4 -2 -20 2 -36 5 -16 6 -29 2 -29 -8 0 -7 -68 1 -76 3 -3 2
-16 -3 -28 -4 -13 -4 -29 0 -36 5 -8 6 -19 3 -24 -8 -13 -7 -102 2 -116 3 -5
3 -10 -2 -10 -4 0 -8 -29 -8 -65 0 -36 3 -65 7 -65 4 0 3 -13 -2 -30 -5 -17
-5 -30 0 -30 5 0 5 -13 0 -30 -5 -17 -5 -30 0 -30 5 0 5 -13 0 -29 -4 -15 -4
-34 0 -42 5 -7 5 -20 0 -29 -5 -9 -5 -22 0 -30 5 -8 5 -21 0 -30 -5 -9 -5 -22
0 -30 5 -8 5 -21 0 -30 -5 -9 -5 -22 -1 -29 5 -7 5 -29 1 -49 -3 -21 -3 -49 1
-65 4 -15 4 -27 1 -27 -4 0 -7 -29 -7 -65 0 -36 3 -65 7 -65 4 0 3 -13 -2 -30
-5 -17 -5 -30 0 -30 5 0 5 -13 0 -30 -5 -17 -5 -30 0 -30 5 0 5 -13 0 -29 -4
-15 -4 -34 0 -42 5 -7 5 -20 0 -29 -5 -9 -5 -22 0 -30 5 -8 5 -21 0 -30 -5 -9
-5 -22 0 -30 5 -8 5 -21 0 -30 -5 -9 -5 -21 -1 -28 4 -6 4 -37 1 -68 -3 -30
-3 -57 1 -60 4 -2 4 -18 -1 -34 -5 -19 -5 -30 1 -30 6 0 7 -5 3 -11 -3 -6 -6
-71 -6 -144 0 -73 3 -138 6 -144 4 -6 3 -11 -3 -11 -6 0 -6 -11 -1 -30 5 -17
5 -32 0 -35 -5 -3 -5 -16 0 -30 6 -15 6 -27 -1 -30 -5 -4 -7 -11 -3 -16 8 -13
9 -97 2 -104 -3 -4 -2 -20 2 -36 5 -16 6 -29 2 -29 -8 0 -7 -68 1 -76 3 -3 2
-16 -3 -28 -4 -13 -4 -29 0 -36 5 -8 6 -19 3 -24 -8 -13 -7 -102 2 -116 3 -5
2 -10 -4 -10 -6 0 -6 -11 -1 -30 5 -17 5 -30 0 -30 -5 0 -5 -13 0 -30 5 -17 5
-30 0 -30 -5 0 -5 -13 0 -30 5 -17 5 -32 0 -35 -5 -3 -5 -16 0 -30 6 -15 6
-25 0 -25 -5 0 -5 -12 0 -30 5 -17 5 -30 0 -30 -5 0 -5 -13 0 -30 5 -17 5 -30
0 -30 -5 0 -5 -13 0 -30 5 -17 5 -30 0 -30 -11 0 15 -65 38 -96 10 -12 33 -27
52 -34 26 -9 311 -10 1120 -7 597 3 1103 7 1125 10 22 3 72 8 110 11 39 4 90
9 115 12 25 2 70 7 100 10 30 3 62 8 70 11 8 3 29 7 45 9 36 3 86 10 123 19
49 10 77 16 102 20 51 8 85 16 105 22 24 8 21 8 70 18 56 13 55 12 58 15 1 1
9 3 17 5 61 12 332 97 385 119 17 8 53 22 80 31 28 10 54 22 60 27 5 4 15 8
23 8 15 0 347 162 422 206 25 14 73 44 107 65 34 21 65 39 68 39 3 0 16 9 29
21 13 12 27 20 31 19 4 -1 11 2 14 7 3 5 40 33 81 63 41 30 80 59 87 65 7 5
18 15 25 20 156 120 386 344 503 490 22 28 43 52 46 55 3 3 29 37 57 75 28 39
56 75 61 81 27 33 99 144 93 144 -4 0 -2 4 3 8 14 10 65 90 65 102 0 5 5 10
10 10 6 0 10 6 10 14 0 8 6 21 13 28 6 7 35 58 62 113 28 55 52 102 55 105 3
3 21 41 40 85 19 44 39 83 45 87 5 4 6 8 1 8 -5 0 -4 6 2 13 6 6 11 17 12 22
3 11 16 50 27 75 3 8 7 20 9 25 1 6 8 24 15 40 6 17 13 35 15 40 1 6 11 35 22
65 22 57 87 275 96 320 3 14 10 43 16 65 6 22 13 54 16 70 3 17 10 47 15 68 6
21 12 51 14 67 2 16 6 37 9 47 3 10 7 34 10 53 3 19 8 46 10 60 3 14 8 48 11
75 4 28 8 61 10 75 2 14 7 54 10 90 3 36 8 77 11 92 5 33 16 208 18 308 1 42
6 81 10 88 4 7 3 12 -1 12 -10 0 -10 41 0 57 4 7 4 14 -1 17 -9 5 -6 81 3 96
3 6 2 10 -2 10 -10 0 -10 41 0 57 4 5 4 13 0 17 -3 3 -7 52 -9 109 -2 132 -12
257 -29 402 -4 28 -8 66 -10 85 -4 33 -22 152 -31 208 -5 28 -30 159 -40 202
-3 14 -7 36 -10 50 -3 14 -7 33 -10 42 -3 9 -6 25 -9 35 -2 11 -10 43 -19 71
-8 29 -13 52 -10 52 2 0 -3 14 -11 31 -9 17 -14 33 -11 37 3 3 1 11 -5 18 -5
7 -12 25 -15 41 -3 15 -11 46 -19 68 -17 48 -79 219 -93 255 -5 14 -9 27 -9
30 1 3 -6 19 -15 35 -9 17 -53 107 -98 200 -46 94 -88 173 -94 177 -6 4 -7 8
-2 8 5 0 2 8 -6 18 -8 9 -30 44 -48 77 -18 33 -46 76 -62 96 -15 20 -28 39
-28 42 0 13 -190 267 -229 308 -9 9 -41 45 -71 80 -86 99 -264 272 -349 339
-18 14 -42 34 -54 45 -33 30 -164 127 -232 171 -33 21 -69 47 -79 57 -11 9
-23 17 -27 17 -3 0 -49 25 -100 56 -94 57 -389 206 -389 198 0 -3 -12 1 -27
10 -54 28 -266 111 -308 120 -5 1 -20 7 -31 14 -12 6 -24 9 -26 6 -3 -2 -16 0
-29 5 -51 20 -71 27 -104 34 -11 3 -40 11 -65 18 -25 7 -49 14 -55 15 -21 6
-143 34 -170 40 -11 2 -45 9 -75 16 -61 13 -68 14 -125 22 -41 6 -80 13 -80
16 0 1 -22 3 -50 5 -27 3 -63 7 -80 10 -35 5 -145 18 -285 31 -30 3 -551 8
-1157 10 l-1102 5 -39 -36z"/>
<path d="M38805 31030 c-38 -15 -77 -66 -80 -105 -2 -20 -6 -39 -8 -42 -3 -2
-1 -18 3 -34 5 -16 5 -31 0 -34 -5 -3 -6 -15 -2 -26 4 -11 5 -47 2 -80 -3 -33
-3 -62 1 -65 4 -2 4 -18 -1 -34 -5 -16 -5 -32 0 -35 5 -3 5 -19 0 -35 -5 -17
-6 -30 -2 -30 4 0 7 -16 7 -35 0 -19 -3 -35 -7 -35 -4 0 -3 -13 2 -30 5 -16 6
-30 2 -30 -8 0 -6 -106 2 -127 3 -7 1 -13 -4 -13 -5 0 -5 -13 0 -30 5 -18 5
-32 -1 -36 -5 -3 -7 -10 -3 -15 8 -13 9 -118 1 -125 -3 -3 -2 -16 3 -28 4 -13
5 -28 0 -35 -4 -7 -4 -28 0 -47 4 -19 4 -34 0 -34 -4 0 -4 -16 0 -35 4 -19 5
-35 1 -35 -7 0 -5 -95 3 -116 3 -7 1 -16 -4 -19 -5 -3 -5 -18 0 -35 5 -17 5
-32 0 -35 -5 -3 -6 -15 -1 -28 5 -13 5 -30 1 -38 -5 -8 -5 -21 0 -29 4 -7 4
-24 0 -36 -6 -14 -5 -26 0 -29 6 -4 7 -13 1 -24 -5 -9 -6 -23 -1 -31 4 -7 4
-24 0 -36 -6 -14 -5 -26 0 -29 5 -3 5 -18 0 -35 -5 -19 -5 -30 1 -30 6 0 7 -5
4 -10 -7 -11 -7 -60 -2 -133 1 -21 -1 -43 -4 -49 -4 -6 -4 -21 1 -33 5 -12 5
-27 0 -34 -4 -7 -4 -28 0 -47 4 -19 4 -34 0 -34 -4 0 -4 -16 0 -35 4 -19 5
-35 1 -35 -7 0 -4 -107 3 -127 3 -7 1 -13 -3 -13 -5 0 -5 -16 -1 -35 4 -19 4
-35 0 -35 -4 0 -4 -16 0 -35 4 -19 4 -35 0 -35 -5 0 -5 -13 0 -30 5 -17 5 -32
0 -35 -5 -3 -5 -16 0 -30 5 -14 6 -25 2 -25 -8 0 -6 -106 2 -127 3 -7 1 -13
-4 -13 -5 0 -5 -13 0 -30 5 -17 5 -32 0 -35 -5 -3 -6 -15 -1 -26 4 -12 4 -43
1 -70 -4 -27 -3 -54 1 -61 4 -6 4 -21 -1 -32 -4 -12 -4 -30 0 -41 4 -11 4 -27
-1 -36 -4 -8 -4 -21 1 -29 4 -7 4 -23 0 -36 -5 -12 -6 -25 -3 -28 7 -7 10 -76
3 -76 -6 0 -2 -109 4 -127 3 -7 1 -13 -4 -13 -5 0 -5 -13 0 -30 5 -18 5 -32
-1 -36 -5 -3 -7 -10 -3 -15 8 -13 9 -118 1 -125 -3 -3 -2 -16 3 -28 4 -13 5
-28 0 -35 -4 -7 -4 -28 0 -47 4 -19 4 -34 0 -34 -4 0 -4 -16 0 -35 4 -19 5
-35 1 -35 -7 0 -5 -95 3 -116 3 -7 1 -16 -4 -19 -5 -3 -5 -18 0 -35 5 -17 5
-32 0 -35 -5 -3 -6 -15 -1 -28 5 -13 5 -30 1 -38 -5 -8 -5 -21 0 -29 4 -7 4
-24 0 -36 -6 -14 -5 -26 0 -29 6 -4 7 -13 1 -24 -5 -9 -6 -23 -1 -31 4 -7 4
-24 0 -36 -6 -14 -5 -26 0 -29 5 -3 5 -18 0 -35 -5 -19 -5 -30 1 -30 6 0 7 -5
4 -10 -7 -11 -7 -60 -2 -133 1 -21 -1 -43 -4 -49 -4 -6 -4 -21 1 -33 5 -12 5
-27 0 -34 -4 -7 -4 -28 0 -47 4 -19 4 -34 0 -34 -4 0 -4 -16 0 -35 4 -19 5
-35 1 -35 -7 0 -4 -107 3 -127 3 -7 1 -13 -3 -13 -5 0 -5 -16 -1 -35 4 -19 4
-35 0 -35 -4 0 -4 -16 0 -35 4 -19 4 -35 0 -35 -5 0 -5 -13 0 -30 5 -17 5 -32
0 -35 -5 -3 -5 -16 0 -30 5 -14 6 -25 2 -25 -8 0 -6 -106 2 -127 3 -7 1 -13
-4 -13 -5 0 -5 -13 0 -30 5 -17 5 -32 0 -35 -5 -3 -6 -15 -2 -26 5 -11 5 -45
2 -75 -3 -30 -3 -57 1 -60 4 -2 4 -17 -1 -33 -4 -15 -4 -34 0 -41 5 -7 4 -24
0 -36 -6 -14 -5 -26 0 -29 5 -3 5 -18 0 -35 -5 -17 -6 -30 -2 -30 4 0 7 -16 7
-35 0 -19 -2 -35 -5 -35 -6 0 -2 -109 4 -127 3 -7 1 -13 -4 -13 -5 0 -5 -13 0
-30 5 -18 5 -32 -1 -36 -5 -3 -7 -10 -3 -15 8 -13 9 -118 1 -125 -3 -3 -2 -16
3 -28 4 -13 5 -28 0 -35 -4 -7 -4 -28 0 -47 4 -19 4 -34 0 -34 -4 0 -4 -16 0
-35 4 -19 5 -35 1 -35 -7 0 -5 -95 3 -116 3 -7 1 -16 -4 -19 -5 -3 -5 -18 0
-35 5 -17 5 -32 0 -35 -5 -3 -6 -15 -1 -28 5 -13 5 -30 1 -38 -5 -8 -5 -21 0
-29 4 -7 4 -24 0 -36 -6 -14 -5 -26 0 -29 6 -4 7 -13 1 -24 -5 -9 -6 -23 -1
-31 4 -7 4 -24 0 -36 -6 -14 -5 -26 0 -29 5 -3 5 -18 0 -35 -5 -19 -5 -30 1
-30 6 0 7 -5 4 -10 -7 -11 -7 -60 -2 -133 1 -21 -1 -43 -4 -49 -4 -6 -4 -21 1
-33 5 -12 5 -27 0 -34 -4 -7 -4 -28 0 -47 4 -19 4 -34 0 -34 -4 0 -4 -16 0
-35 4 -19 5 -35 1 -35 -7 0 -4 -107 3 -127 3 -7 1 -13 -3 -13 -5 0 -5 -16 -1
-35 4 -19 4 -35 0 -35 -4 0 -4 -16 0 -35 4 -19 4 -35 0 -35 -5 0 -5 -13 0 -30
5 -17 5 -32 0 -35 -5 -3 -5 -16 0 -30 5 -14 6 -25 2 -25 -8 0 -6 -106 2 -127
3 -7 1 -13 -4 -13 -5 0 -5 -13 0 -30 5 -17 5 -32 0 -35 -5 -3 -6 -15 -2 -26 4
-11 5 -47 2 -80 -3 -33 -3 -62 1 -65 4 -2 4 -17 -1 -33 -4 -16 -6 -32 -3 -35
3 -3 6 -24 8 -48 2 -54 19 -81 66 -107 l37 -21 2946 0 c1620 0 2946 4 2946 8
0 5 11 15 25 22 29 15 60 88 53 125 -3 14 -2 25 1 25 3 0 5 21 4 47 -5 115 -5
144 0 150 4 3 3 13 -2 22 -5 9 -5 25 -1 36 4 11 4 29 0 41 -5 11 -5 27 0 34 4
7 4 25 0 40 -4 15 -4 33 0 40 4 7 4 25 0 40 -4 15 -4 33 0 40 4 7 4 26 0 41
-5 16 -5 31 0 34 4 3 4 21 0 40 -4 19 -5 35 -1 35 7 0 4 127 -4 148 -2 6 -1
12 4 12 5 0 5 18 1 40 -4 22 -5 40 -1 40 3 0 6 34 6 75 0 41 -3 75 -6 75 -4 0
-3 18 1 40 4 22 4 40 0 40 -4 0 -4 18 0 40 4 22 4 40 0 40 -4 0 -4 15 0 34 4
19 4 40 0 47 -5 7 -6 18 -3 25 7 19 -24 76 -52 97 -26 18 -93 30 -160 27 -22
-1 -44 -1 -50 -1 -63 3 -227 2 -231 -1 -2 -3 -21 -2 -42 1 -20 4 -48 5 -61 1
-14 -3 -49 -3 -79 0 -29 4 -55 2 -58 -2 -3 -5 -9 -6 -14 -3 -5 3 -29 5 -52 5
-24 0 -52 0 -63 0 -130 -1 -172 -1 -185 0 -33 0 -101 0 -108 -1 -4 -1 -11 -1
-17 1 -5 1 -53 1 -105 0 -52 0 -104 -1 -115 0 -11 0 -44 2 -73 3 -28 1 -52 -2
-52 -6 0 -5 -4 -5 -10 -2 -8 5 -159 7 -310 4 -8 0 -49 0 -90 1 -41 1 -79 1
-85 -1 -5 -1 -14 -1 -20 1 -5 1 -33 1 -62 0 -29 0 -61 -1 -70 -1 -10 0 -52 0
-93 0 -41 0 -84 0 -95 1 -11 0 -44 2 -73 3 -28 1 -52 -2 -52 -6 0 -5 -4 -6 -9
-3 -6 4 -174 7 -293 5 -10 0 -38 0 -63 0 -25 0 -52 0 -60 0 -8 0 -35 0 -60 0
-25 0 -52 0 -60 0 -8 0 -62 0 -120 0 -58 0 -112 0 -120 0 -31 0 -106 0 -122 1
-67 1 -107 -1 -114 -6 -5 -3 -9 -2 -9 3 0 4 -25 8 -55 8 -30 0 -55 -4 -55 -8
0 -5 -4 -6 -9 -3 -7 5 -47 7 -113 6 -10 -1 -38 -1 -63 -1 -25 0 -52 0 -60 0
-8 0 -35 0 -60 0 -25 0 -52 0 -60 0 -8 0 -62 0 -120 0 -58 0 -112 0 -120 0 -8
0 -35 0 -60 0 -25 0 -52 0 -60 0 -8 0 -35 1 -60 1 l-45 2 -2 3316 c-3 3299 -3
3317 -23 3344 -45 60 -19 58 -793 57 -389 0 -716 -4 -727 -9z"/>
<path d="M48393 31023 c-29 -17 -82 -73 -68 -73 3 0 1 -9 -5 -20 -7 -13 -7
-20 -1 -20 7 0 7 -8 2 -23 -5 -13 -5 -30 0 -39 6 -11 5 -19 -1 -23 -6 -4 -7
-13 -1 -24 6 -10 6 -23 1 -31 -5 -8 -4 -22 2 -34 6 -12 10 -23 9 -26 -2 -3 -7
-13 -12 -22 -6 -10 -5 -19 1 -23 7 -4 7 -12 0 -25 -7 -13 -7 -21 0 -25 6 -4 7
-13 1 -23 -6 -11 -6 -24 0 -34 6 -11 6 -19 -1 -23 -7 -4 -7 -12 0 -25 7 -13 7
-21 0 -25 -7 -4 -7 -12 0 -24 5 -10 6 -21 3 -25 -8 -8 -8 -68 0 -89 3 -9 2
-19 -3 -22 -6 -3 -6 -15 0 -30 6 -16 6 -25 0 -25 -6 0 -6 -9 0 -25 6 -15 6
-27 0 -30 -6 -3 -6 -15 0 -30 6 -16 6 -25 0 -25 -6 0 -6 -9 0 -25 5 -14 6 -25
1 -25 -9 0 -5 -55 4 -71 4 -5 2 -9 -4 -9 -7 0 -7 -8 -1 -25 6 -15 6 -25 0 -25
-5 0 -5 -12 0 -30 5 -19 5 -30 -1 -30 -6 0 -8 -4 -5 -8 3 -5 8 -24 11 -42 6
-34 62 -99 87 -101 49 -5 59 -7 64 -12 3 -3 17 -2 30 3 14 6 24 6 24 0 0 -5
12 -5 30 0 17 5 30 5 30 0 0 -5 13 -5 29 0 15 4 34 4 42 0 7 -5 20 -5 29 0 9
5 23 4 32 -1 11 -6 19 -6 23 1 4 7 12 7 25 0 13 -7 21 -7 25 0 4 7 12 7 25 0
13 -7 21 -7 25 0 4 6 13 7 23 1 11 -6 24 -6 34 0 11 6 19 6 23 -1 4 -7 12 -7
25 0 12 6 21 7 25 0 4 -6 15 -6 30 0 16 6 25 6 25 0 0 -6 9 -6 25 0 14 5 25 6
25 2 0 -9 64 -7 79 2 5 4 12 2 16 -3 4 -7 15 -7 30 -1 14 5 25 6 25 2 0 -4 20
-7 45 -7 25 0 45 3 45 7 0 4 11 3 25 -2 16 -6 25 -6 25 0 0 6 9 6 25 0 16 -6
25 -6 25 0 0 6 9 6 25 0 15 -6 26 -6 30 0 4 7 13 6 25 0 13 -7 21 -7 25 0 4 7
12 7 25 0 12 -6 21 -6 25 -1 5 10 36 7 54 -4 5 -3 12 -1 16 4 3 7 15 7 30 1
15 -6 27 -6 30 0 4 7 13 6 25 0 13 -7 21 -7 25 0 4 6 13 7 23 1 11 -6 24 -6
34 0 11 6 19 6 23 -1 4 -7 12 -7 24 0 10 5 21 6 25 3 8 -9 66 -10 66 -1 0 4
11 3 25 -2 16 -6 25 -6 25 0 0 6 9 6 25 0 15 -6 26 -6 30 0 4 7 13 6 25 0 13
-7 21 -7 25 0 4 6 13 7 24 1 10 -6 23 -6 31 -1 8 5 18 6 23 3 14 -8 97 -9 97
-1 0 4 11 3 25 -2 16 -6 25 -6 25 0 0 6 9 6 25 0 16 -6 25 -6 25 0 0 6 9 6 25
0 15 -6 26 -6 30 0 4 7 13 6 25 0 13 -7 21 -7 25 0 4 7 12 7 25 0 12 -6 21 -6
25 -1 5 9 36 8 53 -3 4 -2 14 -1 22 4 8 5 21 5 31 -1 11 -6 20 -5 24 1 4 7 12
7 25 0 13 -7 21 -7 25 0 4 7 12 7 25 0 13 -7 21 -7 25 0 4 6 13 7 24 1 10 -6
23 -6 31 -1 8 5 19 5 25 0 6 -5 17 -5 25 0 7 4 24 4 36 0 14 -6 26 -5 29 0 4
7 13 6 25 0 13 -7 21 -7 25 0 4 7 12 7 25 0 13 -7 21 -7 25 0 4 7 12 7 25 0
13 -7 21 -7 25 0 4 7 12 7 25 0 13 -7 21 -7 25 0 4 6 11 8 16 5 14 -9 89 -11
89 -3 0 4 11 3 25 -2 16 -6 25 -6 25 0 0 6 9 6 25 0 16 -6 25 -6 25 0 0 6 9 6
25 0 15 -6 26 -6 30 0 4 7 13 6 25 0 13 -7 21 -7 25 0 4 7 12 7 25 0 12 -6 21
-6 25 -1 5 10 36 7 54 -4 5 -3 12 -1 16 4 3 7 15 7 30 1 15 -6 27 -6 30 0 4 7
13 6 25 0 13 -7 21 -7 25 0 4 6 13 7 23 1 11 -6 24 -6 34 0 11 6 19 6 23 -1 4
-7 12 -7 25 0 13 7 21 7 25 0 4 -6 12 -7 23 -1 9 5 26 5 39 0 14 -5 23 -5 23
1 0 6 9 6 25 0 16 -6 25 -6 25 0 0 6 9 6 25 0 15 -6 26 -6 30 0 4 7 13 6 25 0
13 -7 21 -7 25 0 4 6 13 7 24 1 10 -6 23 -6 31 -1 8 5 22 4 34 -2 12 -6 21
-11 21 -10 0 0 12 5 28 11 16 6 27 7 27 1 0 -6 9 -6 25 0 16 6 25 6 25 0 0 -6
9 -6 25 0 14 5 25 6 25 2 0 -4 47 -7 105 -7 58 0 105 3 105 7 0 4 11 3 25 -2
16 -6 25 -6 25 0 0 6 9 6 25 0 16 -6 25 -6 25 0 0 6 9 6 25 0 15 -6 26 -6 30
0 4 7 13 6 25 0 13 -7 21 -7 25 0 4 7 12 7 25 0 12 -6 21 -6 25 -1 5 10 36 7
54 -4 5 -3 12 -1 16 4 3 7 15 7 30 1 15 -6 27 -6 30 0 4 7 13 6 25 0 13 -7 21
-7 25 0 4 6 13 7 23 1 11 -6 24 -6 34 0 11 6 19 6 23 -1 4 -7 12 -7 25 0 13 7
21 7 25 0 4 -6 12 -7 23 -1 9 5 26 5 39 0 14 -5 23 -5 23 1 0 6 9 6 25 0 16
-6 25 -6 25 0 0 6 9 6 25 0 15 -6 26 -6 30 0 4 7 13 6 25 0 13 -7 21 -7 25 0
4 6 13 7 24 1 10 -6 23 -6 31 -1 8 5 21 5 29 0 24 -12 24 -12 54 -1 16 6 27 7
27 1 0 -6 9 -6 25 0 16 6 25 6 25 0 0 -6 9 -6 25 0 17 6 25 6 25 -1 0 -6 4 -8
8 -5 5 3 23 8 40 11 56 9 79 23 101 58 21 34 21 41 21 572 0 587 0 582 -58
622 -26 17 -138 18 -2652 21 -2488 2 -2627 1 -2657 -15z"/>
<path d="M48417 27513 c-44 -15 -59 -27 -85 -75 -14 -23 -17 -40 -11 -51 6
-10 5 -18 -1 -22 -7 -4 -7 -12 0 -25 7 -13 7 -21 0 -25 -7 -4 -7 -12 0 -25 7
-13 7 -21 0 -25 -7 -4 -7 -12 0 -24 5 -10 6 -21 3 -25 -9 -8 -7 -202 2 -216 3
-5 3 -10 -2 -10 -4 0 -8 -13 -8 -30 0 -16 2 -30 5 -30 7 0 3 -76 -4 -89 -4 -5
-2 -12 4 -16 7 -4 7 -12 0 -25 -7 -13 -7 -21 0 -25 7 -4 7 -12 1 -23 -6 -10
-6 -23 0 -34 6 -10 5 -19 -1 -23 -7 -4 -7 -12 0 -25 7 -13 7 -21 0 -25 -7 -4
-7 -12 0 -25 6 -10 6 -21 2 -24 -7 -4 -8 -48 -1 -82 1 -5 0 -12 -1 -16 -5 -20
-2 -116 4 -145 9 -41 41 -82 75 -95 45 -18 91 -26 96 -17 3 4 16 5 28 0 12 -5
31 -5 42 -1 11 4 24 5 28 3 13 -8 96 -7 103 0 3 3 16 2 28 -2 11 -5 30 -5 41
-1 11 4 24 5 29 2 5 -3 37 -5 71 -5 34 0 66 2 71 5 5 3 18 2 29 -2 11 -4 30
-4 41 1 12 4 25 5 28 2 7 -8 134 -8 142 0 3 3 18 2 33 -3 16 -4 34 -4 40 0 12
7 70 4 79 -4 2 -3 14 -1 27 4 13 5 25 6 29 3 8 -8 146 -9 146 -1 0 4 13 3 29
-2 15 -4 34 -4 42 0 7 5 17 6 22 3 13 -8 147 -9 147 -1 0 4 13 3 28 -2 16 -4
35 -4 43 1 8 4 21 4 28 0 7 -5 28 -5 47 -1 19 4 34 5 34 1 0 -3 31 -6 70 -6
38 0 70 3 70 7 0 4 12 3 28 -1 15 -5 37 -5 49 0 12 4 25 4 28 -1 3 -5 18 -5
34 0 16 4 32 6 35 3 5 -5 185 -7 204 -3 4 2 12 1 17 0 22 -4 123 -3 131 2 5 3
18 2 29 -2 11 -4 30 -4 41 1 12 4 25 5 28 2 7 -7 130 -8 142 -1 5 3 18 2 29
-2 11 -4 30 -4 41 1 12 4 25 5 28 2 3 -3 35 -6 71 -6 36 0 68 3 71 6 3 3 16 2
28 -2 11 -5 30 -5 41 -1 19 7 74 4 82 -4 3 -2 18 0 34 4 16 5 29 5 29 0 0 -4
16 -4 35 0 19 4 35 5 35 1 0 -3 16 -6 35 -6 19 0 35 3 35 7 0 4 12 3 28 -1 15
-5 37 -5 49 0 12 4 25 4 28 -1 3 -5 18 -5 35 0 17 5 30 6 30 2 0 -4 16 -7 35
-7 19 0 35 3 35 7 0 4 13 3 28 -2 16 -4 35 -4 43 1 8 4 21 4 28 -1 8 -4 25 -4
40 0 14 4 35 4 46 0 11 -4 32 -4 48 1 15 4 27 5 27 1 0 -6 125 -7 140 -1 3 1
10 0 15 -1 22 -5 102 -3 111 3 6 3 16 2 23 -3 8 -4 27 -4 42 0 16 5 29 6 29 2
0 -8 203 -7 224 1 8 3 17 3 20 -1 10 -9 100 -4 148 8 37 11 88 52 88 73 0 8 0
7 11 55 4 17 3 34 -1 37 -5 3 -5 18 0 34 4 16 6 31 4 34 -7 7 -10 97 -3 97 3
0 3 18 -1 40 -4 22 -5 40 -1 40 3 0 6 34 6 75 0 41 -2 75 -5 75 -3 0 -4 21 -3
47 3 65 3 95 3 116 0 9 0 28 0 42 0 14 0 33 0 43 0 9 0 28 -1 42 0 14 0 32 0
40 3 48 1 122 -4 129 -3 6 -1 12 4 15 6 4 6 18 1 36 -5 16 -5 32 -1 35 17 10
-13 100 -41 125 -34 30 -97 50 -126 39 -12 -5 -24 -4 -27 0 -3 5 -21 5 -40 1
-19 -4 -35 -4 -35 0 0 4 -15 5 -33 1 -18 -5 -41 -5 -52 -1 -11 4 -32 4 -47 -1
-16 -4 -28 -4 -28 1 0 4 -16 4 -35 0 -19 -4 -35 -5 -35 -1 0 3 -16 6 -35 6
-19 0 -35 -3 -35 -7 0 -4 -12 -3 -28 1 -15 5 -37 5 -49 0 -12 -4 -25 -4 -28 1
-3 5 -18 5 -35 0 -17 -5 -30 -6 -30 -2 0 4 -16 7 -35 7 -19 0 -35 -3 -35 -7 0
-4 -13 -3 -28 2 -16 4 -35 4 -43 -1 -8 -4 -21 -4 -28 1 -8 4 -25 4 -40 0 -14
-4 -35 -4 -46 0 -11 4 -32 4 -47 -1 -16 -4 -28 -5 -28 -1 0 6 -125 7 -140 1
-3 -1 -9 0 -15 1 -22 5 -102 3 -111 -3 -6 -3 -16 -2 -23 3 -8 4 -27 4 -42 0
-16 -5 -29 -6 -29 -2 0 4 -30 6 -67 5 -38 -1 -86 -2 -108 -2 -22 -1 -49 -1
-60 -2 -11 0 -24 0 -30 0 -5 0 -43 2 -83 3 -39 2 -72 0 -72 -4 0 -4 -13 -3
-29 2 -15 4 -34 4 -41 0 -7 -5 -23 -5 -34 0 -11 4 -33 4 -48 -1 -16 -4 -28 -5
-28 -1 0 8 -123 7 -136 0 -5 -3 -18 -2 -29 2 -11 4 -32 4 -47 -1 -16 -4 -28
-5 -28 -1 0 8 -123 7 -136 0 -5 -3 -18 -2 -29 2 -11 4 -32 4 -47 -1 -15 -4
-30 -4 -33 1 -3 5 -18 5 -34 0 -15 -4 -34 -4 -41 0 -7 4 -26 4 -41 0 -16 -5
-29 -6 -29 -2 0 4 -48 6 -107 4 -60 -1 -119 -2 -133 -2 -14 0 -34 0 -45 0 -11
-1 -24 -1 -30 -1 -5 0 -43 2 -83 3 -39 2 -72 0 -72 -4 0 -4 -13 -3 -29 2 -15
4 -34 4 -41 0 -7 -5 -23 -5 -34 0 -11 4 -33 4 -48 -1 -16 -4 -28 -5 -28 -1 0
8 -123 7 -136 0 -5 -3 -18 -2 -29 2 -11 4 -32 4 -47 -1 -16 -4 -28 -5 -28 -1
0 8 -123 7 -136 0 -5 -3 -18 -2 -29 2 -11 4 -32 4 -47 -1 -15 -4 -30 -4 -33 1
-3 5 -18 5 -34 0 -15 -4 -34 -4 -41 0 -7 4 -26 4 -41 0 -16 -5 -29 -6 -29 -2
0 4 -48 6 -107 4 -60 -1 -119 -2 -133 -2 -14 0 -34 0 -45 0 -26 -2 -32 -1 -80
2 -22 2 -57 -3 -78 -9z"/>
<path d="M48404 23989 c-18 -10 -40 -24 -49 -33 -21 -21 -48 -86 -35 -86 6 0
6 -9 1 -23 -5 -13 -5 -30 0 -39 6 -11 5 -19 -1 -23 -6 -4 -7 -13 -1 -24 6 -10
6 -23 1 -31 -5 -8 -5 -21 0 -30 5 -9 5 -22 0 -30 -5 -8 -5 -21 1 -31 6 -11 5
-20 -1 -24 -6 -3 -6 -15 0 -30 5 -13 6 -26 2 -29 -8 -5 -8 -64 1 -72 3 -4 2
-15 -3 -25 -7 -12 -7 -20 0 -24 6 -4 7 -13 1 -24 -6 -10 -6 -23 -1 -31 5 -8 5
-21 0 -30 -5 -9 -4 -23 1 -32 6 -11 6 -19 -1 -23 -7 -4 -7 -12 0 -25 6 -10 7
-21 2 -24 -9 -5 -7 -69 2 -85 4 -5 2 -12 -4 -16 -6 -4 -7 -12 -1 -24 6 -10 6
-23 1 -31 -5 -8 -5 -21 1 -31 6 -11 5 -20 -1 -24 -6 -3 -6 -15 0 -30 6 -15 6
-27 0 -30 -7 -4 -6 -13 0 -25 6 -10 7 -21 2 -24 -12 -7 -5 -81 13 -137 3 -10
21 -29 38 -41 l32 -23 2635 0 2635 0 33 25 c19 14 37 39 43 60 7 23 9 223 7
577 l-3 542 -34 30 c-19 17 -41 32 -48 32 -22 2 -27 4 -40 12 -6 4 -14 3 -18
-3 -4 -7 -12 -7 -25 0 -13 7 -21 7 -25 0 -4 -7 -12 -7 -25 0 -13 7 -21 7 -25
0 -4 -7 -12 -7 -25 0 -12 6 -21 6 -25 1 -5 -10 -36 -7 -54 4 -5 3 -12 1 -16
-4 -3 -7 -15 -7 -30 -1 -15 6 -27 6 -30 0 -4 -7 -13 -6 -25 0 -13 7 -21 7 -25
0 -4 -6 -13 -7 -23 -1 -11 6 -24 6 -34 0 -11 -6 -19 -6 -23 1 -4 7 -12 7 -25
0 -13 -7 -21 -7 -25 0 -4 6 -12 7 -23 1 -9 -5 -26 -5 -39 0 -14 5 -23 5 -23
-1 0 -6 -9 -6 -25 0 -16 6 -25 6 -25 0 0 -6 -9 -6 -25 0 -15 6 -26 6 -30 0 -4
-7 -13 -6 -25 0 -13 7 -21 7 -25 0 -4 -6 -13 -7 -24 -1 -10 6 -23 6 -31 1 -8
-5 -22 -4 -34 2 -12 6 -23 10 -26 8 -22 -12 -50 -18 -50 -10 0 6 -9 6 -25 0
-16 -6 -25 -6 -25 0 0 6 -9 6 -25 0 -14 -5 -25 -6 -25 -2 0 4 -47 7 -105 7
-58 0 -105 -3 -105 -7 0 -4 -11 -3 -25 2 -16 6 -25 6 -25 0 0 -6 -9 -6 -25 0
-16 6 -25 6 -25 0 0 -6 -9 -6 -25 0 -15 6 -26 6 -30 0 -4 -7 -13 -6 -25 0 -13
7 -21 7 -25 0 -4 -7 -12 -7 -25 0 -12 6 -21 6 -25 1 -5 -10 -36 -7 -54 4 -5 3
-12 1 -16 -4 -3 -7 -15 -7 -30 -1 -15 6 -27 6 -30 0 -4 -7 -13 -6 -25 0 -13 7
-21 7 -25 0 -4 -6 -13 -7 -23 -1 -11 6 -24 6 -34 0 -11 -6 -19 -6 -23 1 -4 7
-12 7 -24 0 -10 -5 -21 -6 -25 -3 -8 9 -66 10 -66 1 0 -4 -11 -3 -25 2 -16 6
-25 6 -25 0 0 -6 -9 -6 -25 0 -15 6 -27 6 -30 0 -3 -6 -15 -6 -30 0 -16 6 -25
6 -25 0 0 -6 -9 -6 -25 0 -15 6 -27 6 -30 0 -3 -5 -13 -6 -22 -3 -21 8 -81 8
-89 0 -4 -3 -15 -2 -25 3 -12 7 -20 7 -24 0 -4 -7 -12 -7 -25 0 -13 7 -21 7
-25 0 -4 -6 -13 -7 -23 -1 -11 6 -24 6 -34 0 -11 -6 -19 -6 -23 1 -4 7 -12 7
-25 0 -13 -7 -21 -7 -25 0 -4 6 -13 7 -23 1 -9 -5 -19 -10 -22 -12 -3 -1 -15
3 -27 9 -14 8 -24 9 -28 2 -4 -6 -13 -7 -23 -1 -11 6 -24 6 -34 0 -11 -6 -19
-6 -23 1 -4 6 -13 7 -24 1 -10 -6 -23 -6 -31 -1 -8 5 -21 5 -31 -1 -11 -6 -20
-5 -24 1 -4 7 -12 7 -24 0 -10 -5 -21 -6 -25 -3 -8 9 -66 10 -66 1 0 -4 -6 -5
-13 -2 -23 8 -97 10 -97 2 0 -4 -6 -5 -13 -2 -23 9 -98 10 -103 2 -3 -5 -13
-4 -23 1 -10 6 -23 6 -31 1 -8 -5 -21 -5 -31 1 -11 6 -20 5 -24 -1 -4 -6 -13
-7 -23 -1 -11 6 -24 6 -34 0 -11 -6 -19 -6 -23 1 -4 6 -13 7 -24 1 -10 -6 -23
-6 -31 -1 -8 5 -21 5 -31 -1 -11 -6 -20 -5 -24 1 -4 7 -12 7 -24 0 -10 -5 -21
-6 -25 -3 -8 9 -66 10 -66 1 0 -4 -6 -5 -13 -2 -23 8 -97 10 -97 2 0 -4 -6 -5
-13 -2 -23 9 -98 10 -103 2 -3 -5 -13 -4 -23 1 -10 6 -23 6 -31 1 -8 -5 -21
-5 -30 0 -9 5 -22 5 -30 0 -8 -5 -21 -5 -31 1 -11 6 -20 5 -24 -1 -4 -7 -12
-7 -25 0 -13 7 -21 7 -25 0 -4 -7 -12 -7 -25 0 -13 7 -21 7 -25 0 -4 -6 -13
-7 -23 -1 -11 6 -24 6 -34 0 -11 -6 -19 -6 -23 1 -4 7 -12 7 -25 0 -12 -6 -21
-7 -25 0 -4 6 -15 6 -30 0 -16 -6 -25 -6 -25 0 0 6 -9 6 -25 0 -14 -5 -25 -6
-25 -2 0 9 -64 7 -79 -2 -5 -4 -12 -2 -16 3 -4 7 -15 7 -30 1 -14 -5 -25 -6
-25 -2 0 4 -20 7 -45 7 -25 0 -45 -3 -45 -7 0 -4 -11 -3 -25 2 -16 6 -25 6
-25 0 0 -6 -9 -6 -25 0 -16 6 -25 6 -25 0 0 -6 -9 -6 -25 0 -15 6 -26 6 -30 0
-4 -7 -13 -6 -25 0 -13 7 -21 7 -25 0 -4 -7 -12 -7 -25 0 -12 6 -21 6 -25 1
-5 -10 -36 -7 -54 4 -5 3 -12 1 -16 -4 -3 -7 -15 -7 -30 -1 -15 6 -27 6 -30 0
-4 -7 -13 -6 -25 0 -13 7 -21 7 -25 0 -4 -7 -12 -7 -23 -1 -10 6 -23 6 -34 0
-10 -6 -19 -5 -23 1 -4 7 -12 7 -25 0 -11 -6 -21 -6 -25 -1 -3 6 -17 6 -35 1
-17 -5 -32 -5 -35 0 -3 5 -16 5 -30 0 -16 -6 -25 -6 -25 0 0 6 -9 6 -25 0 -14
-5 -25 -6 -25 -2 0 13 -61 7 -96 -9z"/>
</g>
</svg>
